<svg width="99" height="99" viewBox="0 0 99 99" fill="none" xmlns="http://www.w3.org/2000/svg">
<circle cx="49.5" cy="49.5" r="49.5" fill="#9EA9AF"/>
<path fill-rule="evenodd" clip-rule="evenodd" d="M99 49.5C99 63.2336 93.407 75.661 84.3746 84.6286C77.0758 76.2591 64.1789 70.6967 49.4948 70.6967C34.8119 70.6967 21.9191 76.2582 14.6225 84.6256C5.59174 75.6583 0 63.2321 0 49.5C0 22.1619 22.1619 0 49.5 0C76.8381 0 99 22.1619 99 49.5ZM49.6465 69.4993C60.9707 69.4993 70.1511 59.5895 70.1511 47.3652V47.3649C70.1511 35.1422 60.9723 25.2311 49.6465 25.2311C38.3223 25.2311 29.1418 35.1408 29.1418 47.3652C29.1418 59.5895 38.3223 69.4993 49.6465 69.4993Z" fill="#C3C8CC"/>
</svg>
